<svg width="30" height="30" viewBox="0 0 30 30" fill="none" xmlns="http://www.w3.org/2000/svg">
<path d="M27.439 22.5H2.5625C3.18966 16.1834 8.51911 11.25 15.0008 11.25C21.4825 11.25 26.8119 16.1834 27.439 22.5Z" stroke="#333333" stroke-width="2" stroke-linejoin="round"/>
<path d="M8.75 12.5L6.25 8.125" stroke="#333333" stroke-width="2" stroke-linecap="round" stroke-linejoin="round"/>
<path d="M20.625 12.5L23.125 8.125" stroke="#333333" stroke-width="2" stroke-linecap="round" stroke-linejoin="round"/>
<path d="M9.375 19.375C10.0654 19.375 10.625 18.8154 10.625 18.125C10.625 17.4346 10.0654 16.875 9.375 16.875C8.68464 16.875 8.125 17.4346 8.125 18.125C8.125 18.8154 8.68464 19.375 9.375 19.375Z" fill="#333333"/>
<path d="M20.625 19.375C21.3154 19.375 21.875 18.8154 21.875 18.125C21.875 17.4346 21.3154 16.875 20.625 16.875C19.9346 16.875 19.375 17.4346 19.375 18.125C19.375 18.8154 19.9346 19.375 20.625 19.375Z" fill="#333333"/>
</svg>
