<svg width="30" height="30" viewBox="0 0 30 30" fill="none" xmlns="http://www.w3.org/2000/svg">
<path d="M14.9453 7.0735C14.9966 5.67879 15.3884 4.45371 16.1116 3.42963C16.8385 2.40035 18.0401 1.66919 19.6849 1.25488C19.6959 1.30553 19.7073 1.35621 19.7191 1.4067V1.6717C19.7191 2.2726 19.5733 2.96164 19.2856 3.71955C18.9841 4.45338 18.5129 5.14405 17.8871 5.76739C17.3018 6.31663 16.7603 6.68025 16.2817 6.84463C16.1237 6.89181 15.9071 6.93825 15.6455 6.98006C15.4128 7.01631 15.1794 7.0475 14.9453 7.0735Z" fill="#333333"/>
<path d="M15.2196 9.14319C13.3617 9.14319 12.0717 7.5 10.239 7.5C8.40642 7.5 4.63086 9.1845 4.63086 15C4.63086 20.8155 7.98361 24.5625 8.35861 25C8.73355 25.4376 9.6008 26.5622 10.9444 26.5622C12.288 26.5622 13.7589 25.4939 15.2196 25.4939C16.6802 25.4939 18.5187 26.5622 19.719 26.5622C20.9192 26.5622 21.4129 26.0729 22.2298 25.2289C23.0466 24.385 24.6047 21.8096 25.1488 20.2638C24.2525 19.7303 21.877 18.282 21.877 15C21.877 12.8121 22.6766 10.9944 24.2758 9.54706C23.2267 8.18237 22.0099 7.5 20.6255 7.5C18.5488 7.5 17.0775 9.14319 15.2196 9.14319Z" stroke="#333333" stroke-width="2" stroke-linejoin="round"/>
</svg>
