<svg data-v-5dfc7bc3="" xmlns="http://www.w3.org/2000/svg" width="26" height="26" viewBox="0 0 26 26" fill="none" class="icon"><path fill-rule="evenodd" clip-rule="evenodd" d="M12.705 4.26441C13.8777 2.93796 15.592 2.10156 17.5016 2.10156C21.0363 2.10156 23.9016 4.96694 23.9016 8.50156C23.9016 11.2342 22.189 13.5669 19.7785 14.4847C19.6511 15.2441 19.4276 15.971 19.1208 16.6522C18.2887 16.9468 17.4425 17.1915 16.5865 17.3859C17.5355 16.1787 18.1016 14.6563 18.1016 13.0016C18.1016 9.08034 14.9228 5.90156 11.0016 5.90156C7.08034 5.90156 3.90156 9.08034 3.90156 13.0016C3.90156 14.4893 4.35917 15.8702 5.14131 17.0112C4.99108 16.9665 4.84116 16.9203 4.69157 16.8724L2.70821 16.2377C2.31653 15.2347 2.10156 14.1433 2.10156 13.0016C2.10156 8.08623 6.08623 4.10156 11.0016 4.10156C11.5842 4.10156 12.1537 4.15754 12.705 4.26441ZM17.5016 3.90156C20.0422 3.90156 22.1016 5.96105 22.1016 8.50156C22.1016 10.17 21.2134 11.631 19.884 12.4374C19.6732 9.06808 17.5878 6.20704 14.6585 4.88517C15.441 4.2691 16.4284 3.90156 17.5016 3.90156Z" fill="#FAFAFA"></path><path d="M1 19.1454L3.62021 20.116C9.69061 22.3644 16.3726 22.1595 22.2638 19.5922L21.6221 22.8004H23.4578L24.753 16.3242L23.0807 17.2044C17.2607 20.2676 10.4129 20.7124 4.24542 18.428L1 17.2259V19.1454Z" fill="#71FF45"></path></svg>