<svg width="30" height="30" viewBox="0 0 30 30" fill="none" xmlns="http://www.w3.org/2000/svg">
<path d="M18.7198 8.52273L18.0808 9.72682C18.6985 10.0557 19.4645 9.86216 19.8526 9.27914L18.7198 8.52273ZM22.1234 3.40909L23.2562 4.1655C23.6265 3.60927 23.5395 2.86625 23.0509 2.41083L22.1234 3.40909ZM28.5903 12.9545L29.9487 12.8638C29.901 12.1475 29.307 11.5908 28.5902 11.5908L28.5903 12.9545ZM14.9759 12.9547V11.591C14.6148 11.591 14.2685 11.7347 14.0132 11.9905C13.7578 12.2461 13.6144 12.593 13.6144 12.9547H14.9759ZM14.9759 17.7276H13.6144C13.6144 18.4807 14.2239 19.0912 14.9759 19.0912V17.7276ZM21.4427 17.7276H22.8042C22.8042 16.9745 22.1946 16.364 21.4427 16.364V17.7276ZM19.8526 9.27914L23.2562 4.1655L20.9906 2.65268L17.587 7.76632L19.8526 9.27914ZM22.1234 3.40909C23.0509 2.41083 23.0503 2.41025 23.0496 2.40965C23.0494 2.40944 23.0487 2.40884 23.0483 2.40842C23.0474 2.40758 23.0465 2.40672 23.0455 2.40582C23.0436 2.40402 23.0415 2.40211 23.0392 2.40007C23.0348 2.39599 23.0297 2.39143 23.0241 2.38641C23.0129 2.37636 22.9994 2.36446 22.9835 2.35082C22.9517 2.32354 22.9106 2.28935 22.8597 2.2493C22.758 2.16917 22.6175 2.06564 22.4359 1.94706C22.0722 1.70969 21.5452 1.41314 20.8357 1.12355C19.4131 0.542877 17.2809 0 14.2951 0V2.72727C16.9433 2.72727 18.7252 3.20712 19.8082 3.64917C20.3516 3.87095 20.7253 4.08577 20.9492 4.23192C21.0612 4.3051 21.1363 4.36137 21.1766 4.3931C21.1967 4.40898 21.2082 4.41873 21.2113 4.42142C21.2129 4.42276 21.2124 4.42234 21.2098 4.42004C21.2085 4.41888 21.2067 4.41726 21.2044 4.41515C21.2032 4.4141 21.2019 4.41292 21.2006 4.41162C21.1998 4.41097 21.1992 4.41029 21.1983 4.40958C21.198 4.40922 21.1974 4.40866 21.1972 4.40849C21.1966 4.40792 21.196 4.40735 22.1234 3.40909ZM14.2951 0C11.1002 0 7.54906 1.43281 4.80021 3.9338C2.02698 6.45695 0 10.1328 0 14.659H2.72288C2.72288 11.0036 4.34585 8.03168 6.63104 5.95255C8.94052 3.85128 11.8563 2.72727 14.2951 2.72727V0ZM0 14.659C0 24.0004 7.48337 30.0001 14.9759 30.0001V27.2729C8.85393 27.2729 2.72288 22.364 2.72288 14.659H0ZM28.5903 12.9545C28.5902 11.5908 28.5903 11.5908 28.5902 11.5908C28.5901 11.5908 28.5904 11.5908 28.5902 11.5908C28.59 11.5908 28.5892 11.5908 28.5886 11.5908C28.5876 11.5908 28.5859 11.5908 28.5838 11.5908C28.5795 11.5908 28.5731 11.5908 28.5647 11.5908C28.5478 11.5908 28.5227 11.5908 28.4897 11.5908C28.4237 11.5908 28.3263 11.5908 28.2007 11.5908C27.9494 11.5909 27.5851 11.5909 27.1331 11.5909C26.229 11.5909 24.974 11.591 23.57 11.591C20.762 11.591 17.3584 11.5911 14.9759 11.591V14.3183C17.3584 14.3184 20.762 14.3183 23.57 14.3182C24.974 14.3182 26.2291 14.3182 27.1331 14.3182C27.5852 14.3182 27.9495 14.3182 28.2008 14.3181C28.3264 14.3181 28.4238 14.3181 28.4898 14.3181C28.5228 14.3181 28.5479 14.3181 28.5648 14.3181C28.5733 14.3181 28.5796 14.3181 28.5839 14.3181C28.586 14.3181 28.5876 14.3181 28.5887 14.3181C28.5893 14.3181 28.5897 14.3181 28.5899 14.3181C28.5899 14.3181 28.5901 14.3181 28.5899 14.3181C28.59 14.3181 28.5904 14.3181 28.5903 12.9545ZM13.6144 12.9547V17.7276H16.3373V12.9547H13.6144ZM14.9759 19.0912H21.4427V16.364H14.9759V19.0912ZM20.0813 17.7276C20.0813 18.2028 19.7262 19.0449 18.775 19.8271C17.8676 20.5731 16.5534 21.1368 14.9759 21.1368V23.864C17.2104 23.864 19.1296 23.0641 20.5026 21.935C21.8318 20.8422 22.8042 19.2978 22.8042 17.7276H20.0813ZM14.9759 21.1368C11.1521 21.1368 8.84937 17.8608 8.84937 14.659H6.12649C6.12649 18.9573 9.26951 23.864 14.9759 23.864V21.1368ZM8.84937 14.659C8.84937 11.7027 11.6023 8.86357 14.9759 8.86357V6.1363C10.1807 6.1363 6.12649 10.1155 6.12649 14.659H8.84937ZM14.9759 8.86357C16.3375 8.86357 17.4573 9.39477 18.0808 9.72682L19.3589 7.31864C18.6209 6.9257 17.0178 6.1363 14.9759 6.1363V8.86357ZM14.9759 30.0001C18.8373 30.0001 23.4576 28.4234 26.6031 24.358L24.451 22.6874C21.9115 25.9695 18.1547 27.2729 14.9759 27.2729V30.0001ZM26.6031 24.358C28.6705 21.6861 30.3148 18.3644 29.9487 12.8638L27.2318 13.0452C27.5465 17.7723 26.1815 20.4508 24.451 22.6874L26.6031 24.358Z" fill="#333333"/>
</svg>
