<svg width="30" height="30" viewBox="0 0 30 30" fill="none" xmlns="http://www.w3.org/2000/svg">
    <path fill-rule="evenodd" clip-rule="evenodd" d="M3 2a1 1 0 0 0-1 1v18a1 1 0 0 0 1 1h18a1 1 0 0 0 1-1V3a1 1 0 0 0-1-1H3Zm1.725 17.522h3.153V9.508H4.724v10.014ZM5.296 7.81c.296.2.645.309 1.003.31A1.788 1.788 0 0 0 7.988 7.01c.09-.222.135-.46.132-.699A1.81 1.81 0 1 0 5.296 7.81Zm11.051 11.722H19.5l.001-6.194c0-3.059-1.9-4.102-3.66-4.102-1.626 0-2.692 1.053-2.996 1.669h-.041V9.516H9.77V19.53h3.153V14.1c0-1.448.917-2.153 1.852-2.153.886 0 1.571.498 1.571 2.112v5.47Z" fill="white"></path>
</svg>