<svg width="30" height="30" viewBox="0 0 30 30" fill="none" xmlns="http://www.w3.org/2000/svg">
<path d="M3.111 2H20.89C21.503 2 22 2.497 22 3.111V20.89c0 .614-.497 1.111-1.111 1.111H3.11A1.111 1.111 0 0 1 2 20.889V3.11C2 2.497 2.497 2 3.111 2ZM17.89 16.378c-.112-.056-.168-.223-.168-.335v-8.48c0-.112.056-.28.168-.39l1.06-1.228v-.056h-3.794l-2.846 7.197L9.074 5.89H5.168v.056L6.173 7.34c.223.223.279.557.279.836v6.138c.055.334 0 .725-.168 1.06l-1.506 2.064v.056h4.017v-.056L7.29 15.43a1.718 1.718 0 0 1-.168-1.06V8.79c.056.112.112.112.168.335l3.794 8.48h.056L14.82 8.4c-.056.334-.056.725-.056 1.004v6.584a.506.506 0 0 1-.167.39l-1.116 1.06v.056h5.468v-.056l-1.06-1.06Z" fill="white"></path>
</svg>