<svg width="120" height="57" viewBox="0 0 120 57" fill="none" xmlns="http://www.w3.org/2000/svg">
<path d="M0.714844 51.894H4.23179C4.56046 51.894 4.86815 51.7325 5.05483 51.462L6.95526 48.7081C7.32503 48.1723 8.10004 48.127 8.52965 48.6162L13.2385 53.9774C13.4283 54.1936 13.7021 54.3175 13.9898 54.3175H19.0306C19.2634 54.3175 19.489 54.2362 19.6683 54.0877L21.5228 52.5521C21.9577 52.192 22.6043 52.2631 22.9505 52.7091L24.9409 55.2728C25.3008 55.7364 25.9805 55.7918 26.4108 55.3928L33.9563 48.3951C34.3865 47.9961 35.0663 48.0516 35.4261 48.5151L37.1962 50.7951C37.6155 51.3351 38.4409 51.3046 38.8191 50.7351L41.877 46.1314C42.0043 45.9398 42.1937 45.7979 42.4134 45.7297L47.4202 44.175C47.7374 44.0765 47.9849 43.827 48.0809 43.509L50.3514 35.9888C50.4381 35.7017 50.6491 35.4687 50.9262 35.3539L54.5133 33.8688C54.748 33.7716 54.937 33.5888 55.0418 33.3574L56.199 30.8021C56.5478 30.032 57.6354 30.0152 58.0077 30.7741L61.4003 37.689C61.6392 38.1761 62.223 38.3837 62.7159 38.157L67.984 35.7336C68.2569 35.608 68.4589 35.3665 68.5342 35.0756L72.5509 19.5543C72.6908 19.0136 73.2466 18.6923 73.7851 18.8409L76.4051 19.5641C76.8647 19.6909 77.3501 19.4756 77.5644 19.0496L80.29 13.633C80.5788 13.0591 81.3262 12.9025 81.8211 13.3123L82.9037 14.2087C83.3455 14.5746 84.0144 14.4201 84.251 13.8975V13.8975C84.5286 13.2846 85.3672 13.2053 85.7548 13.7554L88.7708 18.0366C89.2591 18.7297 90.3343 18.5388 90.5541 17.7199L94.0688 4.62348C94.2343 4.0069 94.9273 3.70114 95.4942 3.99456L99.5473 6.0921C99.9566 6.30391 100.458 6.2086 100.761 5.8613L104.702 1.34269C104.892 1.12496 105.166 1 105.455 1H111.17C111.629 1 112.03 1.31294 112.14 1.75871L113.971 9.12229C114.18 9.96227 115.285 10.1582 115.77 9.44129L119.286 4.24324" stroke="#85BD00" stroke-linecap="round"/>
</svg>
