<svg data-v-5dfc7bc3="" xmlns="http://www.w3.org/2000/svg" width="26" height="26" viewBox="0 0 26 26" fill="none" class="icon"><path d="M4.00195 3.10156H22.002V4.90156H13.9016V18.5665C13.3017 18.5456 12.7014 18.5456 12.1016 18.5665V4.90156H4.00195V3.10156Z" fill="#FAFAFA"></path><path fill-rule="evenodd" clip-rule="evenodd" d="M6.00156 7.60156C3.84765 7.60156 2.10156 9.34765 2.10156 11.5016C2.10156 13.6555 3.84765 15.4016 6.00156 15.4016C8.15547 15.4016 9.90156 13.6555 9.90156 11.5016C9.90156 9.34765 8.15547 7.60156 6.00156 7.60156ZM3.90156 11.5016C3.90156 10.3418 4.84176 9.40156 6.00156 9.40156C7.16136 9.40156 8.10156 10.3418 8.10156 11.5016C8.10156 12.6614 7.16136 13.6016 6.00156 13.6016C4.84176 13.6016 3.90156 12.6614 3.90156 11.5016Z" fill="#FAFAFA"></path><path fill-rule="evenodd" clip-rule="evenodd" d="M20.0016 9.60156C17.8477 9.60156 16.1016 11.3477 16.1016 13.5016C16.1016 15.6555 17.8477 17.4016 20.0016 17.4016C22.1555 17.4016 23.9016 15.6555 23.9016 13.5016C23.9016 11.3477 22.1555 9.60156 20.0016 9.60156ZM17.9016 13.5016C17.9016 12.3418 18.8418 11.4016 20.0016 11.4016C21.1614 11.4016 22.1016 12.3418 22.1016 13.5016C22.1016 14.6614 21.1614 15.6016 20.0016 15.6016C18.8418 15.6016 17.9016 14.6614 17.9016 13.5016Z" fill="#FAFAFA"></path><path fill-rule="evenodd" clip-rule="evenodd" d="M20.6875 23.8418C15.7333 21.984 10.2737 21.984 5.31952 23.8418L4.6875 22.1564C10.0492 20.1458 15.9578 20.1458 21.3195 22.1564L20.6875 23.8418Z" fill="#71FF45"></path></svg>