<svg data-v-5dfc7bc3="" xmlns="http://www.w3.org/2000/svg" width="26" height="26" viewBox="0 0 26 26" fill="none" class="icon"><path fill-rule="evenodd" clip-rule="evenodd" d="M20 15.3H15V13.5H20V15.3Z" fill="#71FF45"></path><path fill-rule="evenodd" clip-rule="evenodd" d="M7.00156 4.40156C5.60248 4.40156 4.41987 5.32839 4.03423 6.60156H23.0016C23.4986 6.60156 23.9016 7.00451 23.9016 7.50156V18.4023H22.1016V8.40156H3.90156V20.6016H22V20.6023H23.9016V21.5016C23.9016 21.9986 23.4986 22.4016 23.0016 22.4016H3.00156C2.50451 22.4016 2.10156 21.9986 2.10156 21.5016V7.50156C2.10156 4.79537 4.29537 2.60156 7.00156 2.60156H19.0016C19.4986 2.60156 19.9016 3.00451 19.9016 3.50156C19.9016 3.99862 19.4986 4.40156 19.0016 4.40156H7.00156Z" fill="#FAFAFA"></path></svg>