<svg width="30" height="30" viewBox="0 0 30 30" fill="none" xmlns="http://www.w3.org/2000/svg">
    <path d="M12.265 3.333c.578.004 2.026.018 3.564.08l.545.023c1.549.073 3.096.199 3.864.413 1.023.287 1.828 1.126 2.1 2.19.433 1.689.487 4.985.494 5.783V12.176c-.007.798-.061 4.094-.494 5.783-.276 1.068-1.08 1.907-2.1 2.19-.768.215-2.315.34-3.864.413l-.545.024c-1.538.062-2.986.076-3.564.079h-.531c-1.224-.007-6.344-.062-7.973-.515-1.024-.288-1.828-1.127-2.1-2.19-.433-1.69-.487-4.986-.494-5.784v-.354c.007-.798.06-4.094.494-5.783.276-1.068 1.08-1.907 2.1-2.19 1.629-.454 6.749-.509 7.973-.516h.53ZM9.833 8.207v7.584l6.5-3.792-6.5-3.792Z" fill="white"></path>
</svg>